<svg width="60" height="60" fill="none" xmlns="http://www.w3.org/2000/svg"><path d="M46.02 10.38a3.6 3.6 0 100 7.2 3.6 3.6 0 000-7.2zm13.8 7.26a22.768 22.768 0 00-1.38-7.29 14.82 14.82 0 00-3.48-5.31 14.1 14.1 0 00-5.31-3.45A21.9 21.9 0 0042.36.18C39.18 0 38.16 0 30 0s-9.18 0-12.36.18a21.9 21.9 0 00-7.29 1.41 14.34 14.34 0 00-5.31 3.45 14.1 14.1 0 00-3.45 5.31 21.9 21.9 0 00-1.41 7.29C0 20.82 0 21.84 0 30s0 9.18.18 12.36a21.9 21.9 0 001.41 7.29 14.1 14.1 0 003.45 5.31 14.34 14.34 0 005.31 3.45 21.9 21.9 0 007.29 1.41c3.18.18 4.2.18 12.36.18s9.18 0 12.36-.18a21.9 21.9 0 007.29-1.41 14.1 14.1 0 005.31-3.45 14.55 14.55 0 003.48-5.31 22.768 22.768 0 001.38-7.29c0-3.18.18-4.2.18-12.36s0-9.18-.18-12.36zM54.42 42a16.828 16.828 0 01-1.02 5.58 9.18 9.18 0 01-2.25 3.45 9.57 9.57 0 01-3.45 2.25 16.828 16.828 0 01-5.58 1.02c-3 .15-4.11.18-12 .18s-9 0-12-.18a17.19 17.19 0 01-5.82-.9A9.81 9.81 0 019 51.15a9 9 0 01-2.22-3.45 16.62 16.62 0 01-1.2-5.7c0-3-.18-4.11-.18-12s0-9 .18-12a16.62 16.62 0 011.05-5.7A9 9 0 019 9a9.42 9.42 0 013.3-2.4A17.19 17.19 0 0118 5.58c3 0 4.11-.18 12-.18s9 0 12 .18a16.83 16.83 0 015.58 1.02A9.18 9.18 0 0151.15 9a9.18 9.18 0 012.25 3.3 16.828 16.828 0 011.02 5.7c.15 3 .18 4.11.18 12s-.03 9-.18 12zM30 14.61A15.39 15.39 0 1045.42 30 15.359 15.359 0 0030 14.61zm0 25.38a9.99 9.99 0 110-19.98 9.99 9.99 0 010 19.98z" fill="#000"/></svg>