<svg width="159" height="191" fill="none" xmlns="http://www.w3.org/2000/svg"><path d="M81.167 162.908c.33.33.865.33 1.195 0l5.38-5.38a.845.845 0 10-1.196-1.195l-4.781 4.781-4.782-4.781a.845.845 0 00-1.195 1.195l5.379 5.38zm-.248-50.433v49.835h1.69v-49.835h-1.69z" fill="#4B43BC"/><path d="M109.327 72.739a.846.846 0 00-.886-.804l-7.598.37a.845.845 0 00.082 1.689l6.754-.329.329 6.754a.846.846 0 001.689-.082l-.37-7.599zM89.251 95.237l9.929-10.945-1.252-1.136-9.929 10.945 1.252 1.136zm9.929-10.945l9.928-10.946-1.252-1.135-9.928 10.945 1.252 1.136z" fill="red"/><g filter="url(#a)"><path d="M150.658 104.949c0 39.869-31.35 72.101-69.916 72.101-38.566 0-69.916-32.232-69.916-72.101 0-39.87 31.35-72.102 69.916-72.102 38.566 0 69.916 32.233 69.916 72.102z" stroke="#000" stroke-width="3.381" shape-rendering="crispEdges"/></g><g filter="url(#b)"><path d="M3.57 108.329c.881 19.538 8.799 38.048 22.222 51.948 13.423 13.9 31.398 22.202 50.447 23.302l.065-1.183c-18.764-1.083-36.469-9.261-49.691-22.953-13.222-13.691-21.02-31.923-21.888-51.169l-1.154.055z" fill="red"/></g><path d="M157.529 101.003c-.948-19.569-8.903-38.08-22.327-51.96-13.425-13.878-31.367-22.138-50.36-23.183l-.061 1.187c18.707 1.03 36.38 9.165 49.604 22.835 13.223 13.67 21.059 31.905 21.992 51.18l1.152-.059z" fill="#4B43BC"/><rect x="56.758" y="87.012" width="49.026" height="36.346" rx="3.804" fill="#fff" stroke="#000" stroke-width=".845"/><path d="M87.259 87.485v35.925M75.501 87.908v35.924M86.912 99.319h19.365M87.259 112.843H106.7M75.079 106.081H58.097" stroke="#000" stroke-width=".845"/><defs><filter id="a" x="5.755" y="31.156" width="149.975" height="154.347" filterUnits="userSpaceOnUse" color-interpolation-filters="sRGB"><feFlood flood-opacity="0" result="BackgroundImageFix"/><feColorMatrix in="SourceAlpha" values="0 0 0 0 0 0 0 0 0 0 0 0 0 0 0 0 0 0 127 0" result="hardAlpha"/><feOffset dy="3.381"/><feGaussianBlur stdDeviation="1.691"/><feComposite in2="hardAlpha" operator="out"/><feColorMatrix values="0 0 0 0 0 0 0 0 0 0 0 0 0 0 0 0 0 0 0.25 0"/><feBlend in2="BackgroundImageFix" result="effect1_dropShadow_3741_496"/><feBlend in="SourceGraphic" in2="effect1_dropShadow_3741_496" result="shape"/></filter><filter id="b" x=".19" y="108.274" width="79.496" height="82.066" filterUnits="userSpaceOnUse" color-interpolation-filters="sRGB"><feFlood flood-opacity="0" result="BackgroundImageFix"/><feColorMatrix in="SourceAlpha" values="0 0 0 0 0 0 0 0 0 0 0 0 0 0 0 0 0 0 127 0" result="hardAlpha"/><feOffset dy="3.381"/><feGaussianBlur stdDeviation="1.691"/><feComposite in2="hardAlpha" operator="out"/><feColorMatrix values="0 0 0 0 0 0 0 0 0 0 0 0 0 0 0 0 0 0 0.25 0"/><feBlend in2="BackgroundImageFix" result="effect1_dropShadow_3741_496"/><feBlend in="SourceGraphic" in2="effect1_dropShadow_3741_496" result="shape"/></filter></defs></svg>