<svg width="185" height="223" fill="none" xmlns="http://www.w3.org/2000/svg"><path d="M94.124 190.198a.986.986 0 001.396 0l6.283-6.282a.988.988 0 00-1.396-1.397l-5.585 5.585-5.584-5.585a.988.988 0 00-1.396 1.397l6.282 6.282zm-.29-58.901V189.5h1.975v-58.203h-1.974z" fill="#4B43BC"/><path d="M126.986 84.952a.987.987 0 00-1.034-.938l-8.874.432a.987.987 0 10.096 1.972l7.888-.384.384 7.888a.988.988 0 001.972-.096l-.432-8.874zm-23.446 26.277l11.595-12.783-1.462-1.326-11.596 12.783 1.463 1.326zm11.595-12.783l11.596-12.783-1.462-1.326-11.596 12.783 1.462 1.326z" fill="red"/><g filter="url(#a)"><path d="M176.354 123.123c0 46.563-36.614 84.208-81.656 84.208-45.04 0-81.655-37.645-81.655-84.208 0-46.564 36.614-84.209 81.655-84.209 45.042 0 81.656 37.645 81.656 84.209z" stroke="#000" stroke-width="3.949" shape-rendering="crispEdges"/></g><g filter="url(#b)"><path d="M4.57 127.071c1.028 22.819 10.275 44.436 25.952 60.67 15.677 16.234 36.67 25.931 58.918 27.215l.076-1.382C67.6 212.31 46.923 202.758 31.48 186.768c-15.442-15.991-24.55-37.284-25.563-59.761l-1.348.064z" fill="red"/></g><path d="M184.379 118.514c-1.107-22.854-10.398-44.474-26.077-60.683-15.679-16.209-36.633-25.856-58.814-27.076l-.072 1.386c21.848 1.202 42.488 10.704 57.932 26.67 15.444 15.965 24.595 37.261 25.686 59.773l1.345-.07z" fill="#4B43BC"/><path d="M9.323 24V9.784c0-.52.126-.995.379-1.421.253-.442.592-.79 1.019-1.043.442-.252.924-.379 1.445-.379h11.372c.522 0 .996.127 1.422.38.442.252.79.6 1.043 1.042.252.426.379.9.379 1.421V24h-1.92v-6.231h-13.22V24h-1.92zm1.919-8.15h13.22V9.784a.834.834 0 00-.284-.64.834.834 0 00-.64-.284H12.166a.91.91 0 00-.663.285.87.87 0 00-.261.64v6.065zM38.332 24a2.863 2.863 0 01-1.445-.38 2.861 2.861 0 01-1.019-1.018 2.863 2.863 0 01-.379-1.445V6.94h1.92v14.216c0 .253.086.474.26.663.19.174.41.26.663.26h11.373a.87.87 0 00.64-.26.91.91 0 00.284-.663V6.94h1.919v14.216c0 .521-.127 1.003-.38 1.445-.252.427-.6.766-1.042 1.019-.426.253-.9.379-1.421.379H38.332z" fill="red"/><path d="M61.683 17.958v-1.942h9.24v1.942h-9.24z" fill="#000"/><path d="M80.355 24V6.941H94.57c.522 0 .996.127 1.422.38.442.252.79.6 1.042 1.042.253.426.38.9.38 1.421v11.373c0 .521-.127 1.003-.38 1.445-.252.427-.6.766-1.042 1.019-.427.253-.9.379-1.422.379H80.355zm2.843-1.92H94.57a.87.87 0 00.64-.26.91.91 0 00.284-.663V9.784a.834.834 0 00-.284-.64.834.834 0 00-.64-.284H83.198a.91.91 0 00-.663.285.87.87 0 00-.261.64v11.372c0 .253.087.474.26.663.19.174.411.26.664.26zM106.569 24V6.941h15.567v1.92h-13.647v5.638h10.969v1.943h-10.969v5.639h13.647V24h-15.567zm24.572 0V6.918h1.919V22.08h15.14V24h-17.059zm24.943 0V9.784c0-.52.126-.995.379-1.421.252-.442.592-.79 1.018-1.043.443-.252.924-.379 1.446-.379h11.372c.521 0 .995.127 1.422.38.442.252.79.6 1.042 1.042.253.426.379.9.379 1.421V24h-1.919v-6.231h-13.22V24h-1.919zm1.919-8.15h13.22V9.784a.836.836 0 00-.284-.64.835.835 0 00-.64-.284h-11.372a.91.91 0 00-.664.285.872.872 0 00-.26.64v6.065zm5.828-10.33l-.829-3.294h1.919l.806 3.294h-1.896z" fill="#4B43BC"/><rect x="66.687" y="102.175" width="57.257" height="42.449" rx="4.442" fill="#fff" stroke="#000" stroke-width=".987"/><path d="M101.239 102.175v41.957M87.507 102.668v41.956M100.834 115.995h22.617M101.239 131.791h22.705M87.013 123.893H67.181" stroke="#000" stroke-width=".987"/><defs><filter id="a" x="7.12" y="36.94" width="175.157" height="180.263" filterUnits="userSpaceOnUse" color-interpolation-filters="sRGB"><feFlood flood-opacity="0" result="BackgroundImageFix"/><feColorMatrix in="SourceAlpha" values="0 0 0 0 0 0 0 0 0 0 0 0 0 0 0 0 0 0 127 0" result="hardAlpha"/><feOffset dy="3.949"/><feGaussianBlur stdDeviation="1.974"/><feComposite in2="hardAlpha" operator="out"/><feColorMatrix values="0 0 0 0 0 0 0 0 0 0 0 0 0 0 0 0 0 0 0.25 0"/><feBlend in2="BackgroundImageFix" result="effect1_dropShadow_3741_482"/><feBlend in="SourceGraphic" in2="effect1_dropShadow_3741_482" result="shape"/></filter><filter id="b" x=".621" y="127.007" width="92.844" height="95.846" filterUnits="userSpaceOnUse" color-interpolation-filters="sRGB"><feFlood flood-opacity="0" result="BackgroundImageFix"/><feColorMatrix in="SourceAlpha" values="0 0 0 0 0 0 0 0 0 0 0 0 0 0 0 0 0 0 127 0" result="hardAlpha"/><feOffset dy="3.949"/><feGaussianBlur stdDeviation="1.974"/><feComposite in2="hardAlpha" operator="out"/><feColorMatrix values="0 0 0 0 0 0 0 0 0 0 0 0 0 0 0 0 0 0 0.25 0"/><feBlend in2="BackgroundImageFix" result="effect1_dropShadow_3741_482"/><feBlend in="SourceGraphic" in2="effect1_dropShadow_3741_482" result="shape"/></filter></defs></svg>