<svg width="55" height="55" fill="none" xmlns="http://www.w3.org/2000/svg"><path d="M34.711 40.576c-5.427 0-10.524-2.108-14.352-5.936-3.828-3.828-5.937-8.925-5.937-14.352s2.109-10.524 5.936-14.352C24.186 2.108 29.285 0 34.712 0c5.428 0 10.525 2.108 14.353 5.936C52.892 9.764 55 14.86 55 20.288s-2.108 10.524-5.936 14.352c-3.828 3.828-8.925 5.936-14.353 5.936zm0-38.619c-4.904 0-9.51 1.905-12.968 5.363-3.459 3.458-5.363 8.063-5.363 12.968 0 4.904 1.904 9.51 5.363 12.968 3.458 3.458 8.064 5.362 12.968 5.362 4.905 0 9.51-1.904 12.969-5.362 3.458-3.458 5.363-8.064 5.363-12.968 0-4.905-1.905-9.51-5.363-12.968S39.616 1.957 34.71 1.957zm.002 34.95h-.002a16.517 16.517 0 01-11.757-4.862 16.514 16.514 0 01-4.863-11.757c0-4.446 1.727-8.621 4.863-11.757A16.516 16.516 0 0134.71 3.668c4.446 0 8.622 1.727 11.758 4.863a16.515 16.515 0 014.862 11.757c0 4.446-1.727 8.621-4.862 11.757a16.513 16.513 0 01-11.756 4.863zM34.71 5.627a14.571 14.571 0 00-10.373 4.289 14.57 14.57 0 00-4.29 10.373 14.57 14.57 0 004.29 10.373 14.572 14.572 0 0010.373 4.29h.002c3.922 0 7.605-1.524 10.372-4.29a14.57 14.57 0 004.29-10.373 14.57 14.57 0 00-4.29-10.373 14.57 14.57 0 00-10.374-4.29z" fill="#000"/><path d="M16.386 36.922a.978.978 0 01-.692-1.67l3.395-3.395a.979.979 0 011.384 1.384l-3.395 3.394a.975.975 0 01-.692.287zm2.67 2.67a.979.979 0 01-.692-1.67l3.394-3.396a.979.979 0 011.384 1.384l-3.395 3.395a.975.975 0 01-.692.286z" fill="#000"/><path d="M6.374 55a4.418 4.418 0 01-3.144-1.302l-1.93-1.93a4.451 4.451 0 010-6.288l9.888-9.887a4.418 4.418 0 013.144-1.303c1.188 0 2.305.463 3.145 1.303l1.93 1.93a4.418 4.418 0 011.302 3.143 4.417 4.417 0 01-1.303 3.144l-9.888 9.888A4.418 4.418 0 016.374 55zm7.958-18.752c-.664 0-1.29.258-1.76.729l-9.888 9.887c-.97.97-.97 2.55 0 3.52l1.93 1.93c.47.47 1.095.729 1.76.729s1.29-.26 1.76-.73l9.888-9.887c.47-.47.73-1.095.73-1.76s-.26-1.29-.73-1.76l-1.93-1.93a2.473 2.473 0 00-1.76-.728z" fill="#000"/></svg>