<svg width="52" height="52" fill="none" xmlns="http://www.w3.org/2000/svg"><path fill-rule="evenodd" clip-rule="evenodd" d="M6.5 0h8.927a6.5 6.5 0 016.5 6.529v8.898a6.5 6.5 0 01-6.5 6.5H6.5a6.5 6.5 0 01-6.5-6.5V6.529A6.5 6.5 0 016.5 0zm8.927 17.564a2.195 2.195 0 002.166-2.166v-8.87c0-1.196-.97-2.166-2.166-2.166H6.5c-1.197 0-2.167.97-2.167 2.167v8.869A2.195 2.195 0 006.5 17.564h8.927zM36.573 0H45.5A6.5 6.5 0 0152 6.529v8.898a6.5 6.5 0 01-6.5 6.5h-8.927a6.5 6.5 0 01-6.5-6.5V6.5a6.5 6.5 0 016.5-6.5zM45.5 17.564a2.195 2.195 0 002.167-2.166v-8.87c0-1.196-.97-2.166-2.167-2.166h-8.927c-1.196 0-2.166.97-2.166 2.167v8.869a2.195 2.195 0 002.166 2.166H45.5zM6.5 30.073h8.927a6.5 6.5 0 016.5 6.5V45.5a6.5 6.5 0 01-6.5 6.5H6.5A6.5 6.5 0 010 45.471v-8.898a6.5 6.5 0 016.5-6.5zm8.927 17.565c1.196 0 2.166-.97 2.166-2.167v-8.898a2.195 2.195 0 00-2.166-2.166H6.5a2.195 2.195 0 00-2.167 2.166v8.898c0 1.197.97 2.167 2.167 2.167h8.927zM36.573 30.073H45.5a6.5 6.5 0 016.5 6.5v8.898A6.5 6.5 0 0145.5 52h-8.927a6.5 6.5 0 01-6.5-6.529v-8.898a6.5 6.5 0 016.5-6.5zM45.5 47.638c1.197 0 2.167-.97 2.167-2.167v-8.898a2.196 2.196 0 00-2.167-2.166h-8.927a2.196 2.196 0 00-2.166 2.166v8.898c0 1.197.97 2.167 2.166 2.167H45.5z" fill="#000"/></svg>