<svg width="44" height="50" fill="none" xmlns="http://www.w3.org/2000/svg"><path d="M44 21.435v-8.728c-4.064 0-7.165-1.09-9.167-3.211A13.721 13.721 0 0131.58.83V.2L23.375 0v35.449a7.697 7.697 0 01-2.139 4.075 7.623 7.623 0 01-4.072 2.112 7.599 7.599 0 01-4.542-.612 7.655 7.655 0 01-3.376-3.116 7.719 7.719 0 01.746-8.76 7.635 7.635 0 013.854-2.493 7.597 7.597 0 014.579.173v-8.45a15.763 15.763 0 00-11.39 2.468 15.9 15.9 0 00-5.83 7.143 16.004 16.004 0 00-.9 9.198 15.948 15.948 0 004.33 8.15 15.8 15.8 0 008.105 4.357c3.07.614 6.253.3 9.145-.906a15.847 15.847 0 007.103-5.863 15.984 15.984 0 002.545-10.795V18.07A22.027 22.027 0 0044 21.435z" fill="#000"/></svg>